<?xml version="1.0" encoding="utf-8" ?>
<svg baseProfile="full" height="297" version="1.1" width="210" xmlns="http://www.w3.org/2000/svg" xmlns:ev="http://www.w3.org/2001/xml-events" xmlns:xlink="http://www.w3.org/1999/xlink"><defs /><g><rect fill="black" height="10.0" stroke="none" width="10.0" x="65.0" y="98.5" /><rect fill="black" height="10.0" stroke="none" width="10.0" x="65.0" y="118.5" /><rect fill="black" height="10.0" stroke="none" width="10.0" x="65.0" y="138.5" /><rect fill="black" height="10.0" stroke="none" width="10.0" x="65.0" y="158.5" /><rect fill="black" height="10.0" stroke="none" width="10.0" x="65.0" y="178.5" /><rect fill="black" height="10.0" stroke="none" width="10.0" x="75.0" y="108.5" /><rect fill="black" height="10.0" stroke="none" width="10.0" x="75.0" y="128.5" /><rect fill="black" height="10.0" stroke="none" width="10.0" x="75.0" y="148.5" /><rect fill="black" height="10.0" stroke="none" width="10.0" x="75.0" y="168.5" /><rect fill="black" height="10.0" stroke="none" width="10.0" x="75.0" y="188.5" /><rect fill="black" height="10.0" stroke="none" width="10.0" x="85.0" y="98.5" /><rect fill="black" height="10.0" stroke="none" width="10.0" x="85.0" y="118.5" /><rect fill="black" height="10.0" stroke="none" width="10.0" x="85.0" y="138.5" /><rect fill="black" height="10.0" stroke="none" width="10.0" x="85.0" y="158.5" /><rect fill="black" height="10.0" stroke="none" width="10.0" x="85.0" y="178.5" /><rect fill="black" height="10.0" stroke="none" width="10.0" x="95.0" y="108.5" /><rect fill="black" height="10.0" stroke="none" width="10.0" x="95.0" y="128.5" /><rect fill="black" height="10.0" stroke="none" width="10.0" x="95.0" y="148.5" /><rect fill="black" height="10.0" stroke="none" width="10.0" x="95.0" y="168.5" /><rect fill="black" height="10.0" stroke="none" width="10.0" x="95.0" y="188.5" /><rect fill="black" height="10.0" stroke="none" width="10.0" x="105.0" y="98.5" /><rect fill="black" height="10.0" stroke="none" width="10.0" x="105.0" y="118.5" /><rect fill="black" height="10.0" stroke="none" width="10.0" x="105.0" y="138.5" /><rect fill="black" height="10.0" stroke="none" width="10.0" x="105.0" y="158.5" /><rect fill="black" height="10.0" stroke="none" width="10.0" x="105.0" y="178.5" /><rect fill="black" height="10.0" stroke="none" width="10.0" x="115.0" y="108.5" /><rect fill="black" height="10.0" stroke="none" width="10.0" x="115.0" y="128.5" /><rect fill="black" height="10.0" stroke="none" width="10.0" x="115.0" y="148.5" /><rect fill="black" height="10.0" stroke="none" width="10.0" x="115.0" y="168.5" /><rect fill="black" height="10.0" stroke="none" width="10.0" x="115.0" y="188.5" /><rect fill="black" height="10.0" stroke="none" width="10.0" x="125.0" y="98.5" /><rect fill="black" height="10.0" stroke="none" width="10.0" x="125.0" y="118.5" /><rect fill="black" height="10.0" stroke="none" width="10.0" x="125.0" y="138.5" /><rect fill="black" height="10.0" stroke="none" width="10.0" x="125.0" y="158.5" /><rect fill="black" height="10.0" stroke="none" width="10.0" x="125.0" y="178.5" /><rect fill="black" height="10.0" stroke="none" width="10.0" x="135.0" y="108.5" /><rect fill="black" height="10.0" stroke="none" width="10.0" x="135.0" y="128.5" /><rect fill="black" height="10.0" stroke="none" width="10.0" x="135.0" y="148.5" /><rect fill="black" height="10.0" stroke="none" width="10.0" x="135.0" y="168.5" /><rect fill="black" height="10.0" stroke="none" width="10.0" x="135.0" y="188.5" /></g></svg>